/* XPM */
static char *c3c4bd0514494dacd3f44d0d3d1f88799DeAIg01INWGn9IX[] = {
/* columns rows colors chars-per-pixel */
"50 50 194 2 ",
"   c #533535",
".  c #1D5030",
"X  c #37483A",
"o  c #305332",
"O  c #026625",
"+  c #026927",
"@  c #026D29",
"#  c #02742D",
"$  c #03792F",
"%  c #137627",
"&  c #0E6F33",
"*  c #1B6639",
"=  c #027730",
"-  c #027C32",
";  c #6C7C1E",
":  c #5B4724",
">  c #5B4A26",
",  c #5A4D29",
"<  c #5B522B",
"1  c #5B592E",
"2  c #5B5E31",
"3  c #7F462B",
"4  c #5B6233",
"5  c #5C6836",
"6  c #5B733D",
"7  c #5B7A3F",
"8  c #6E683B",
"9  c #1F7041",
"0  c #326747",
"q  c #326C4A",
"w  c #33734D",
"e  c #347750",
"r  c #347B52",
"t  c #6E5756",
"y  c #755657",
"u  c #765759",
"i  c #78585A",
"p  c #5B7E42",
"a  c #506E5E",
"s  c #4E7360",
"d  c #803C26",
"f  c #BC352F",
"g  c #BC3731",
"h  c #BB3B33",
"j  c #C72326",
"k  c #CA2124",
"l  c #C72629",
"z  c #C92529",
"x  c #C6292D",
"c  c #C9292C",
"v  c #D32227",
"b  c #DE262D",
"n  c #C62D31",
"m  c #DD2B33",
"M  c #DF2F39",
"N  c #DF323C",
"B  c #E0252D",
"V  c #E2282E",
"C  c #EB382B",
"Z  c #EE2732",
"A  c #E52A35",
"S  c #EC2933",
"D  c #E42E39",
"F  c #ED2E3B",
"G  c #EA3235",
"H  c #E3313C",
"J  c #EB313E",
"K  c #84492C",
"L  c #954C31",
"P  c #BC4136",
"I  c #BB4439",
"U  c #DA7D1D",
"Y  c #F2641E",
"T  c #F37E19",
"R  c #ED4529",
"E  c #ED5727",
"W  c #F15722",
"Q  c #D27224",
"!  c #EE6226",
"~  c #DA3F57",
"^  c #E93441",
"/  c #E53842",
"(  c #E63B4B",
")  c #EF3D4F",
"_  c #EE3E50",
"`  c #BD527D",
"'  c #DC4754",
"]  c #D6465C",
"[  c #DA435A",
"{  c #DF565B",
"}  c #E74656",
"|  c #EB4153",
" . c #E2445B",
".. c #E4535C",
"X. c #C4496E",
"o. c #D84763",
"O. c #D6526E",
"+. c #C54B72",
"@. c #C45678",
"#. c #DA687B",
"$. c #E16C75",
"%. c #038335",
"&. c #0F8536",
"*. c #038937",
"=. c #038638",
"-. c #038B3A",
";. c #03933E",
":. c #04983F",
">. c #15923A",
",. c #308C36",
"<. c #3A9D35",
"1. c #37AE3D",
"2. c #429733",
"3. c #058F40",
"4. c #188846",
"5. c #039641",
"6. c #039C42",
"7. c #338155",
"8. c #03A346",
"9. c #03AC47",
"0. c #04A549",
"q. c #04AB4B",
"w. c #03B34E",
"e. c #03B94E",
"r. c #04AF50",
"t. c #03B452",
"y. c #03BB54",
"u. c #04BC59",
"i. c #10BC54",
"p. c #2AB54A",
"a. c #528444",
"s. c #03C256",
"d. c #03C359",
"f. c #03C859",
"g. c #34C446",
"h. c #87981B",
"j. c #AC9914",
"k. c #B69118",
"l. c #B8AA14",
"z. c #B8B515",
"x. c #939225",
"c. c #CC821B",
"v. c #DD9715",
"b. c #F38217",
"n. c #EC9317",
"m. c #F39413",
"M. c #D8A914",
"N. c #E7A910",
"B. c #C6C413",
"V. c #D49E70",
"C. c #D6A06D",
"Z. c #4A4A8A",
"A. c #594B89",
"S. c #4C4E95",
"D. c #4E5094",
"F. c #535194",
"G. c #545699",
"H. c #644D82",
"J. c #6260AD",
"K. c #7E68AE",
"L. c #6B67B4",
"P. c #6E67B8",
"I. c #6C6ABA",
"U. c #7472BD",
"Y. c #7D76C0",
"T. c #7A78C4",
"R. c #AF5384",
"E. c #A8588C",
"W. c #B15584",
"Q. c #A15E96",
"!. c #BB628D",
"~. c #AE6D9E",
"^. c #B56593",
"/. c #BA7298",
"(. c #8E65A7",
"). c #826CB2",
"_. c #967FBD",
"`. c #AE6FA0",
"'. c #C45C82",
"]. c #CE6E8D",
"[. c #CD7694",
"{. c #817EC6",
"}. c #9680BD",
"|. c #B783AB",
" X c #C484A5",
".X c #8482C6",
"XX c #8A87C6",
"oX c #8583C9",
"OX c #8C86C9",
"+X c #8B89CC",
"@X c #9A88C3",
"#X c #908ECD",
"$X c #9F9DCF",
"%X c #9998D1",
/* pixels */
"q.# 8.%.y.# 6.# w.8.- s.- 0.= w.6.- y.- ;.- q.8.- :.:.%.0.q.$ 6.%.;.6.t.# 8.- y.- ;.y.@ q.- s.- 6.= ",
"s.@ q.0.y.-.6.- y.t.6.d.6.0.*.g.1.,.p.<.>.<.p.g.% 1.,.2.i.f.# w.%.8.y.s.@ q.:.y.5.q.d.# q.5.s.6.6.-.",
"-.+ - # 6.@ $ O ;.%.# 6.@ = % z.l.j.x.k.h.l.z.z.j.j.k.; &.*.+ - + = %.-.O - @ 6.# - 5.O - # 6.# # # ",
"# t.5.-.;.6.t.@ 8.- y.%.;.e.% B.M.U v.n.v.Q v.N.N.v.v.c.L d K 3 K 3 ,.w.@ w.5.=.-.6.y.# t.6.%.:.6.y.",
"%.s.t.%.0.t.y.# q.5.y.8.w.f.% M.C E Y T b.b.m.n.m.m.T R V k k k l j a.s.%.t.w.= 6.q.f.=.d.t.= q.t.y.",
"O :.$ + - - :.O $ @ 6.# # 8 K Q G R R W C T W E E ! E Y C v v k k l L 8 o :.- + # $ ;.+ -.- + $ - 6.",
"+ w.;.- y.# 6.9.@ 6.= y.$ h S H S S S Z S Z Z S S H S S Z S B k k k x l 5 @ 6.- y.# 8.q.@ 6.%.-.5.w.",
"=.s.t.8.t.-.w.y.+ q.6.y.:.h F F J F F F F F F J F F F F S S B k k l k l p # q.6.u.:.y.y.@ q.= 0.t.y.",
"@ 6.- # 8.+ =.;.O %.# 8.@ g F ) ) _ _ ) ) ) | _ ) ) ) | ( A B k z k k k 2 O - = 8.@ -.;.O - @ = %.6.",
"= w.;.%.t.# 6.# 6.= t.%.-.I F o.E.E.E.^.^.O.@.^.^.E.^.!.[ A B z k k k k , :.= y.%.5.= 0.6.# t.%.6.- ",
"-.y.t.8.t.-.6.= q.5.t.8.w.I F +.P.I.I..X+X'.~.+X{.T.+X_.] H m k k k k k , q.:.t.6.:.-.t.y.:.y.8.6.%.",
"# 6.%.# 8.@ $ + - @ 6.# %.P F +.P.I.I.oXXX'.~.+X{.T.+X_.] H m k k k k k : %.# 8.# # # ;.-.@ 6.# # @ ",
"6.# q.*.%.- :.@ 8.5.- -.-.h F +.P.I.I..X+X'.`.+X{.T.+X}.] A b z k k k k < 6.= t.- -.q.@ 6.= -.%.- 6.",
"q.-.t.q.%.;.8.- t.t.= 6.;.I F +.P.P.L.T.+X'.~.+X{.T.+X}.[ A B k z k k k < q.5.r.6.q.s.= q.= 0.%.-.t.",
"- + 6.- # # = + :.%.+ = # g ^ +.L.L.G.F..X'.~.+X.XT.+X_.[ A B k k z k z , %.# 6.# %.6.O %.+ - @ # -.",
"+ ;.# q.# -.8.@ :.= q.= -.h F @.F.Z.S.D..X'.~.+X.XT.+X_.[ A B k k k n l 4 @ 8.%.%.%.:.6.@ -.# q.$ *.",
"# q.5.t.8.t.y.# q.6.t.6.5.h J X.H.A.A.A.K.+.E.).).K.).(.~ A B k k z l l p -.y.t.-.6.t.y.# q.6.q.5.q.",
"O %.# 8.# *.6.O %.# 0.# # h J _ [ ] [ ~  .|  .o.[  .[  .( A B k z j k k 4 @ 8.%.# = -.5.+ %.# q.# -.",
"@ ;.@ ;.%.q.# ;.# 8.%.$ 0.g F X.A.Z.F.F.{.'.~.OX{.Y.OX_.] A B z j k k k 4 + ;.= q.# ;.# 6.-.# q.# -.",
"%.q.# 0.8.y.-.0.-.y.w.0.q.P F X.Z.Z.S.G..X'.~.+X{.T.+X_.] D m j k k k k 7 # q.6.y.;.0.%.s.t.6.t.:.6.",
"+ %.+ %.= q.@ %.@ 8.%.= 0.h F +.J.J.J.U.XX'.~.+X{.T.+X_.[ M m k k k k k 2 O %.= q.# %.# 6.-.# q.# - ",
"# 8.%.= %.-.6.+ 6.-.# %.-.P F +.P.I.I..X+X'.~.+X{.T.+X_.[ A m z k k k k 5 -.# 0.# %.# 6.;.# %.%.0.+ ",
"-.y.w.=.8.y.y.%.t.t.= 8.q.I F +.P.I.I.oX%X[.|.+X{.T.+X_.[ A B z z k k k 6 t.5.q.6.6.-.t.y.= 0.q.y.-.",
"# 0.%.# %.;.0.@ 0.;.+ %.-.I J +.P.I.I.#X$X'.|.+X{.T.+X_.[ A B k l z k k 6 -.# q.$ $ # 8.:.O %.%.q.+ ",
":.-.# - - 8.+ -.@ 0.# - 8.f J +.P.I.I.%XXX'.~.#XoX.X+X@X#.( / z k z c l , =.# 0.@ %.:.@ -.# 8.+ -.@ ",
"t.t.= 0.q.d.%.t.;.y.0.q.t.h F o.W.R.R. XW.o.]././. XV.C.$.{ ' c k k x z < q.6.t.;.t.d.# t.0.y.;.q.-.",
"q.6.+ =.-.t.+ -.# t.%.-.w.h J [ R.W.R. X[.#.[. X|./.V.V.' ..{ z k l k j , *.%.w.# 6.0.O ;.= t.# =.# ",
"# 6.- # q.@ *.+ 6.-.# - =.I F +.P.I.I.oX#X'.~.+X{.T.+X_.] A b j l k k k 2 + 6.- # 0.@ *.@ %.# 0.@ %.",
"-.y.w.8.t.-.8.%.t.t.= 8.w.I F +.P.I.P.oX+X'.~.+X{.T.+X_.] A A z k k k k 6 -.y.t.q.y.-.q.= q.6.t.;.6.",
"# w.;.%.t.# %.# q.:.@ -.;.I F +.P.I.I..X+X'.~.+X{.T.+X_.] D m k k k k k 4 # w.-.=.t.# -.@ *.= e.$ %.",
"@ 8.%.# q.@ -.@ ;.# 0.# %.g F +.P.I.I.oX+X'.~.+X{.T.+X_.] H m k k k k k > -.# q.# -.# 6.-.@ 0.# -.@ ",
"-.y.w.6.t.-.0.= w.5.t.6.5.h F +.P.I.I.oX+X'.~.+X{.T.+X}.] A b z k k k k , t.:.t.6.6.-.t.y.:.y.6.8.%.",
"# w.-.%.y.# =.+ -.= t.- - h F +.P.I.P.oX+X'.~.+X{.T.+X_.[ A B k l k k k > ;.= y.- - = 0.6.# t.$ %.# ",
"@ 6.- $ - - :.O 5.%.# = %.g J +.P.I.I.U.U.` Q.U.U.U.U.).[ A B k k l k x , %.@ 0.# $ :.O -.@ 8.@ %.+ ",
"-.s.w.%.8.t.y.%.t.t.- 8.6.h J } | _ _ _ _ _ _ _ } } _ _ ( A B k k k n l < t.6.t.6.q.s.= w.6.u.6.8.-.",
"= t.;.# -.:.q.@ w.6.@ -.%.h ^ _ | _ _ _ _ _ _ | | _ | _ ( A B k k z k x , ;.- y.- -.w.+ ;.- y.= -.= ",
";.-.@ 6.@ %.# *.# -.# 6.+ I F ) _ | _ _ _ _ | | _ _ _ | ( A B k z k k k < @ %.- # %.;.+ %.# 8.@ %.:.",
"t.y.5.y.8.0.=.w.= w.q.y.-.h F ) _ _ | | _ | | _ _ _ _ _ ( A B z k k k k 6 = q.-.5.t.d.# w.0.y.5.w.y.",
"q.6.$ t.= *.# ;.+ ;.=.t.@ h F ) _ _ _ | | | _ _ _ _ _ _ ( H m k k k k k 4 O -.# %.6.q.O :.- t.= 6.q.",
"-.*.O %.# :.+ =.+ ;.= # :.g F ) _ _ _ | } | _ _ _ _ _ _ ( N m k k k k k 1 @ %.# 6.@ %.+ -.- # 6.# %.",
"w.t.@ q.8.y.-.q.-.y.w.8.t.P F ) _ _ | | _ | | _ _ _ _ _ ( A m z k k k k 6 # w.6.y.:.q.%.y.w.:.t.5.q.",
"0.0.O -.%.y.# ;.# y.:.%.t.h F ) _ | | _ _ _ | | _ _ _ | ( A B k z k k k 4 + ;.=.y.# -.= q.:.- y.- 6.",
"+ - O -.@ %.@ %.$ + ;.@ = g ^ ) | | _ _ _ _ _ | | _ | _ ( A B k k z k z , - + -.# # *.O - + -.@ $ @ ",
"# w.5.y.6.q.;.y.w.;.t.6.6.h F } | _ _ _ _ _ _ _ | } _ _ ( A B k k k c l , t.5.r.6.q.y.= w.5.y.6.8.-.",
"+ ;.%.y.%.-.%.w.0.%.s.=.%.h J | | _ _ _ _ _ _ _ | | | _ ( A B k k z l l > 6.%.y.%.5.t.@ :.%.y.%.-.- ",
"%.= + -.@ $ @ -.- @ = # -.g J ) _ | _ _ _ _ _ | _ _ | | ( A B k z l k k 2 $ @ -.@ # # %.$ + -.@ # @ ",
"t.y.5.y.6.q.-.y.w.- 0.0.t.P S J J ^ ^ J J J ^ J J J J ^ J S b z l k k j 6 t.;.t.5.8.-.t.y.5.y.6.8.-.",
"w.0.%.s.%.-.%.w.8.@ 4.a s t y y y y u i u i u y y y y y i i u y t       X X X 4.%.%.- w.0.- s.%.-.%.",
"- # -.# # %.O %.+ *.& w q e r 0 7.q q q r q r w q q w 7.0 7.e q q * * . * . 9 * # -.+ - @ # = -.O $ ",
"t.3.t.8.0.d.- y.-.y.6.6.5.u.y.=.y.q.5.;.0.-.y.t.-.0.t.u.=.t.t.=.6.q.d.%.t.5.u.0.r.u.- r.- q.0.y.-.0."
};
