/* XPM */
static char *_52c03b99a2f4381acbf6ebe02122b6f90eCuyfpGskXjxti[] = {
/* columns rows colors chars-per-pixel */
"50 50 208 2 ",
"   c #060505",
".  c #0C0C0C",
"X  c #120E0B",
"o  c #0F100F",
"O  c #14110D",
"+  c #0E0E10",
"@  c #100F11",
"#  c #0F1011",
"$  c #131214",
"%  c #191A16",
"&  c #151519",
"*  c #16191B",
"=  c #1A1B1E",
"-  c #231B14",
";  c #211E1E",
":  c #0D2B1B",
">  c #1F2018",
",  c #24211F",
"<  c #2D241B",
"1  c #312E1E",
"2  c #1D1D21",
"3  c #211F21",
"4  c #1E2225",
"5  c #1C2C25",
"6  c #0F3621",
"7  c #0F3A21",
"8  c #123922",
"9  c #232225",
"0  c #2B2726",
"q  c #252A25",
"w  c #25252A",
"e  c #28262A",
"r  c #27292D",
"t  c #2A292D",
"y  c #332B25",
"u  c #312D2B",
"i  c #25342C",
"p  c #26352E",
"a  c #3F3124",
"s  c #3B332C",
"d  c #2D2D32",
"f  c #302E33",
"g  c #2D3234",
"h  c #2A3C35",
"j  c #323136",
"k  c #34343A",
"l  c #38373C",
"z  c #34393B",
"x  c #39393E",
"c  c #41372B",
"v  c #453A2D",
"b  c #4B3C2D",
"n  c #443B33",
"m  c #074D20",
"M  c #154629",
"N  c #085827",
"B  c #12582E",
"V  c #1A4431",
"C  c #1E4D33",
"Z  c #115E31",
"A  c #195A37",
"S  c #264536",
"D  c #214C37",
"F  c #2C493C",
"G  c #33413E",
"H  c #24563A",
"J  c #026524",
"K  c #026926",
"L  c #06662A",
"P  c #026C29",
"I  c #096A2B",
"U  c #02742D",
"Y  c #03782F",
"T  c #0F6733",
"R  c #0C6D34",
"E  c #126333",
"W  c #17673A",
"Q  c #037631",
"!  c #097133",
"~  c #027C32",
"^  c #0B7838",
"/  c #167637",
"(  c #237B3D",
")  c #4A4036",
"_  c #4D443C",
"`  c #584836",
"'  c #524639",
"]  c #5D503E",
"[  c #61472C",
"{  c #3C3C43",
"}  c #383E44",
"|  c #403F44",
" . c #3E4144",
".. c #324A43",
"X. c #2A5942",
"o. c #345646",
"O. c #176F42",
"+. c #276645",
"@. c #2B7A48",
"#. c #346651",
"$. c #424147",
"%. c #464647",
"&. c #43434A",
"*. c #48494F",
"=. c #544F4F",
"-. c #474751",
";. c #4B4B53",
":. c #485154",
">. c #695845",
",. c #655849",
"<. c #6C5D4C",
"1. c #735F4C",
"2. c #44784E",
"3. c #7D644B",
"4. c #676858",
"5. c #7C7253",
"6. c #626268",
"7. c #73757A",
"8. c #85795B",
"9. c #947C5D",
"0. c #817362",
"q. c #907E6C",
"w. c #038335",
"e. c #038937",
"r. c #048639",
"t. c #0B843D",
"y. c #038B3A",
"u. c #03933D",
"i. c #03983F",
"p. c #0D8A43",
"a. c #1A8246",
"s. c #039641",
"d. c #0B9746",
"f. c #039C43",
"g. c #119549",
"h. c #1A9649",
"j. c #189853",
"k. c #2B8647",
"l. c #398748",
"z. c #3F904E",
"x. c #03A346",
"c. c #04A549",
"v. c #06A74A",
"b. c #04AC4B",
"n. c #03B24E",
"m. c #04B24E",
"M. c #03B94F",
"N. c #0CA652",
"B. c #04AE51",
"V. c #1DAE56",
"C. c #03B452",
"Z. c #0AB352",
"A. c #03B952",
"S. c #03BB56",
"D. c #03BC54",
"F. c #04BE58",
"G. c #28B764",
"H. c #67935E",
"J. c #74936A",
"K. c #74B276",
"L. c #04C156",
"P. c #04C459",
"I. c #04CA5B",
"U. c #06D261",
"Y. c #3DC26E",
"T. c #9D866C",
"R. c #9E896F",
"E. c #A58A69",
"W. c #AC906C",
"Q. c #AC967C",
"!. c #B59A77",
"~. c #97A77C",
"^. c #93B57A",
"/. c #BEA07C",
"(. c #A0B27F",
"). c #C1A279",
"_. c #86868B",
"`. c #8F8E92",
"'. c #95B985",
"]. c #BDA787",
"[. c #AEB58C",
"{. c #C0AA82",
"}. c #CCAD84",
"|. c #CBAE8A",
" X c #C9B28B",
".X c #D2B48D",
"XX c #D8B58D",
"oX c #CEB493",
"OX c #CBB99C",
"+X c #D6B690",
"@X c #D4B994",
"#X c #D8BC94",
"$X c #D5BD9C",
"%X c #D9BE9A",
"&X c #CEBEA5",
"*X c #D7C19D",
"=X c #DAC19E",
"-X c #D5C2A2",
";X c #DBC4A3",
":X c #DCC8A6",
">X c #DECAAA",
",X c #DBCDB0",
"<X c #DDD0B4",
"1X c #E0C9A6",
"2X c #E1CFB1",
"3X c #E3D1B4",
"4X c #E4D3B9",
"5X c #C0C0C4",
/* pixels */
"F.e.w.u.r.D.e.r.A.~ u.w.u.~ u.A.U s.A.U x.U s.d.L x.U x.b.P x.P b.b.U b.x.U x.U n.u.U m.i.U f.~ A.y.",
"C.b.~ b.n.C.x.b.C.f.u.s.u.s.n.D.r.C.N.R C h z d k F R N.a.E b.r.D.L.r.D.F.Q n.r.C.A.y.C.A.U n.f.C.n.",
"F.e.U u.r.D.~ r.A.Q Y w.~ ~ u.M.P W d f t k { x { { z g j j ..T b.x.U b.x.K u.U n.f.U M.s.P u.w.A.y.",
"~ U u.P U Q U s.U U u.P U U ~ U i f t l d { { l &.&.k j { j j h ^ U r.w.K r.~ J ~ U ~ U u.U P ~ Q s.",
"b.x.D.x.u.f.x.D.u.v.D.u.x.u.v.D e j j x l k -.{ { ;.x k &.k j k o.r.D.A.r.A.m.U n.r.C.s.D.b.w.b.f.F.",
"x.f.I.u.Q s.f.I.u.x.I.r.e.e.t.g t t x d &.j { { j { x l &.x { l k / I.A.w.I.m.J x.Q v.y.I.v.U x.s.I.",
"P K Q J J K P ~ J K U K J K M t t e k d x j k t d d d j { x $.$.x H U U J P K N P K K P Q K J J J U ",
"s.r.I.r.e.y.y.L.w.u.y.s.w.f.H e f e j k j t t 0 e e 9 j d x | { &.o.U A.b.P x.U F.v.Q D.x.Y x.~ f.~ ",
"v.b.C.x.~ f.v.D.s.r.s.f.y.C.i e f t f j 9 0 9 9 9 9 e e 9 e f l ;.:.r.D.D.U b.y.C.A.y.D.C.U b.Q v.f.",
"e.~ b.Y U w.~ v.U U Y ~ Y r.i e e e 9 ; 9 3 3 3 3 ; e ; ; ; , 0 k %.! f.u.J w.P x.y.P x.y.K e.P w.U ",
"x.U Y w.~ ~ Q x.P Y Y w.f.P q t 0 ' R.Q.R.<.n y , c >.9.E.9.b 9 d  .d.r.P u.e.K u.e.K r.U w.U f.~ U ",
"C.x.w.b.y.x.x.C.u.u.f.C.S.y.q e s $X1X;X;X;X$XoX].oX@X@X@X@X/.y j :.Z.F.r.S.D.e.C.A.U b.~ n.s.S.b.w.",
"U.u.Y x.~ u.s.I.w.w.u.v.I.~ q 9 1.1X1X1X1X1X1X>X;X;X=X=X%X%X.X` u x Z.n.~ L.b.Y L.b.P x.U x.e.I.f.U ",
"r.P J P P U J U K P Q P U U i 9 Q.1X1X:X1X1X1X1X;X;X%X#X#X#X@X9., x P U K U P U U P K K U K J ~ P J ",
"I.f.e.v.f.I.s.f.s.f.I.y.x.I.C n ;X=X+X+X%X;X>X1X;X%X.X}.)./.}.|.v F Q A.~ m.w.I.b.~ m.y.I.x.e.I.x.e.",
"F.v.~ b.b.P.f.r.f.b.L.s.b.P.W c |.q.=.) 5.!.$X;X%X|.E.` < y >.!.a +.U b.U b.y.L.C.U b.f.L.b.u.D.b.Q ",
"s.U K ~ U s.P P U U u.P U u.2.0 %.&.&.&.&.u 3.oX|.3.% = 2 2 3 u j J.I Q J U K u.Q J Y P u.U J u.U J ",
"w.Q n.~ e.w.e.n.Y e.w.y.n.U [.) ' e e t t e 0 <.,.0 = 2 2 2 2 _ v {.V.s.U i.U b.y.P b.u.Y u.U M.r.U ",
"v.v.B.x.e.x.b.C.f.u.f.C.C.y.K.8.T.t 9 9 9 9 b oX X' 2 2 2 2 0 R.<.[.C.D.U n.y.C.C.y.C.C.Q b.f.C.n.f.",
"e.e.L.w.U r.u.L.w.~ r.s.D.U h.[..XOX,.s u n !.>X=X!.v y s ] ].@X Xk.A.x.K s.Q D.f.Q D.f.P u.w.L.u.w.",
"e.P U e.P P y.U P r.P U U P r./ H.;X>X;X$X>X4X3X1X>X=X@X$X=X*XJ./ Q w.J Y Y K ~ P w.~ P U P r.Q P e.",
"F.x.u.D.f.s.F.f.f.D.f.u.f.b.F.e.f.'.>X2X3X3X3X>X;X;X:X:X;X*X~.m.w.A.D.~ D.D.Q C.r.F.A.Q C.y.F.b.e.D.",
"I.x.i.I.f.s.I.f.x.L.i.w.s.v.I.e.y.h.(.#X%X=X+XXX.X.X@X.X|.^./ x.~ D.L.~ F.D.U v.r.P.A.P x.r.I.n.r.L.",
"r.P P w.P P w.K P r.P J P U r.P K P U l.8.!..X@X.X}.W.5.@.w.J P P ~ Q P U Q J K K ~ U J U K ~ U J w.",
"u.w.D.e.e.L.e.y.e.u.y.u.D.U f.F.U s.d.8 X X < ) b - % > M p.v.P b.v.U x.Q C.x.U f.~ x.~ D.u.Y f.r.L.",
"v.b.B.v.b.C.x.r.f.y.f.C.S.u.n.A.y.O.r 0 X $ O X X $ ; ; 9 k j.r.D.L.U b.y.C.M.K b.Q C.f.C.n.U b.v.C.",
"e.~ C.Q ~ m.U U ~ U ~ e.m.U r.b.P C d t & 9 9 9 ; 9 e e t g +.P x.f.J e.U v.u.J e.K y.U b.e.K y.~ n.",
"~ U f.P U U U U U u.J ~ P ~ U w.y.i e e = d j f e e d 9 e t } ^ K u.~ J u.~ K ~ K ~ K u.Y P u.U U ~ ",
"v.x.C.x.u.f.u.f.n.C.y.x.r.x.s.C.N.d 2 9 9 k l l t t d 2 = t k @.r.D.D.r.D.D.~ M.~ b.u.D.b.i.C.x.w.v.",
"x.s.I.u.Q i.w.f.b.I.w.u.e.u.r.C.O.e * * = j l j 9 e d = . e d } ^ I.C.w.I.n.P x.U x.r.I.x.r.I.f.U f.",
"P P ~ P U J K U P Q J K U J K P i 9 * . = j k j 9 2 g 2 7 4 d k H Q P K U Q K K P U K w.U K Q P U K ",
"i.u.x.s.I.y.u.I.r.s.s.x.I.~ v.E k * $   = d d d 9 $ g 4 p.6 d d ..Z.U m.w.L.n.Q L.b.Q I.v.Y m.r.I.f.",
"x.~ v.b.D.f.b.D.s.r.f.C.L.r.s.h d . *   = d j d 9 * e d M L w d k j.U b.y.D.A.w.A.A.r.D.A.U b.f.D.b.",
"~ P Q Q f.U U f.U U U w.f.P B k = + . $ 9 k =.&.e 2 = 9 2 7 6 k d ..L ~ P u.~ K u.w.P u.w.J w.U i.Q ",
"b.w.~ r.e.w.~ b.U w.w.y.b.P S d . $ . d l 6.5X`.l d d * 9 * 6 d l 4.g.u.P u.U u.U v.e.Y e.U v.w.~ w.",
"B.b.w.b.r.x.v.S.f.y.f.D.D.u.[.0.% + . d 7.&.*.;.j d t 3 . 4 + l &X<XG.A.U b.U M.f.b.n.Q b.s.C.n.~ b.",
"I.r.P u.U y.u.I.w.~ r.f.I.a.-X!.q . . r _.&.l k j d e w . $ 2 ' ~.,XY.b.K s.K s.w.L.f.P i.e.L.u.P u.",
"U K J K K U K P K K Q K P k.!.[ $ . # d d t r t r = d w $ . = - 1 $X( P J P J U P P K J Y P P Q K K ",
"r.x.r.x.x.D.u.f.s.x.L.y.x.L.z.i . . = { k w * 2 # t k { = . . 0 u 4.! C.~ C.w.L.b.Q n.y.P.x.e.L.x.e.",
"U x.Q b.v.D.f.r.f.b.F.y.v.L.r.* . . 9 *.j e = . . t x 7.9 $ . $ &.-.X.b.Q b.r.L.n.U n.f.L.b.y.L.b.Q ",
"K U J U U s.P K U U u.P P u.B $ . . * r e 2 = . . = r r 4 $ $ . e ;.;.W K Y P y.Q J ~ U u.U K s.U K ",
"w.A.w.w.F.~ e.e.u.D.U i.Q u.W o . . * r w 2 * . . & e e w & $ @ $ { ;.:.t.Q f.~ s.~ F.y.e.u.~ D.e.w.",
"b.C.x.b.C.f.e.f.C.C.u.f.u.C.V * : 6 5 e = * & . . . = d = * & $ . d &.;.#.U b.Q b.x.S.b.~ x.x.C.x.x.",
"e.D.w.e.A.~ U e.u.M.U w.~ u.C P u.n.i j w 9 M N ! m B e e 2 5 Z m E { &.X.K u.P y.w.D.r.P r.w.D.w.w.",
"s.U P ~ U i.K U f.P U U U u.M Y U Q g d e r J ~ y.J R d d t h ~ P w.h G r.w.K ~ P y.e.K ~ K u.~ K u.",
"S.v.r.b.b.D.x.v.F.u.f.s.b.D.T f.u.b.h j 9 D r.M.D.U b.S z t k N.w.S.A R F.F.Q A.y.F.A.U n.r.A.n.r.A.",
"I.f.Y v.x.I.u.x.I.y.r.u.x.I.w.u.e.p.r e 9 a.w.C.I.U f.E e 9 g x.~ L.L.Q L.D.P v.w.L.n.P x.w.I.b.e.I.",
"~ K J P P ~ J P ~ J J K P Q K K J S k t d Z J P U J P B r r d I K U Q P U U J P J U U J K J U P J Y ",
"I.y.w.x.u.I.y.u.I.e.u.y.s.r.f.I.U t.Z ^ R b.L.U b.U n.g.z g ..Z.b.U F.n.U v.Q L.x.Q L.f.U v.w.L.i.w.",
"C.x.Q b.n.C.v.b.D.f.u.s.u.s.C.F.e.u.w.x.r.F.I.Q v.w.F.I.Q b.y.D.F.r.F.D.U b.r.D.A.y.C.A.U v.u.D.b.Q "
};
