/* XPM */
static char *_9a318cf049346d8b22e395c6dd2fcd3OyiBpe7RyJLOPm5z[] = {
/* columns rows colors chars-per-pixel */
"50 50 200 2 ",
"   c #75020D",
".  c #7B010E",
"X  c #770713",
"o  c #77211F",
"O  c #015D1F",
"+  c #395C32",
"@  c #026524",
"#  c #026926",
"$  c #026D29",
"%  c #02732D",
"&  c #02792F",
"*  c #027630",
"=  c #0B7231",
"-  c #027C32",
";  c #1A7838",
":  c #27753B",
">  c #48512E",
",  c #4A5E37",
"<  c #535032",
"1  c #4C6B3E",
"2  c #2D7F46",
"3  c #6D5543",
"4  c #5C7F51",
"5  c #717454",
"6  c #82000E",
"7  c #8A010F",
"8  c #94000F",
"9  c #9A030F",
"0  c #840410",
"q  c #8C0411",
"w  c #970513",
"e  c #990311",
"r  c #8F111B",
"t  c #92141B",
"y  c #A30212",
"u  c #AC0312",
"i  c #A50915",
"p  c #A70C1A",
"a  c #B60313",
"s  c #BA0616",
"d  c #B10B19",
"f  c #A3111A",
"g  c #BA121F",
"h  c #871B24",
"j  c #9A1520",
"k  c #AF1722",
"l  c #A81A25",
"z  c #B71A25",
"x  c #842128",
"c  c #8B252E",
"v  c #9B242D",
"b  c #8E2A31",
"n  c #952B32",
"m  c #9C2A32",
"M  c #8B3738",
"N  c #943438",
"B  c #9E353C",
"V  c #A32A34",
"C  c #AD2D37",
"Z  c #B12C33",
"A  c #B82934",
"S  c #BE333E",
"D  c #C60919",
"F  c #D00C1D",
"G  c #EB0815",
"H  c #CA1927",
"J  c #C52B36",
"K  c #CD2D36",
"L  c #D52C35",
"P  c #C4333C",
"I  c #CC333F",
"U  c #CF393E",
"Y  c #EA2C38",
"T  c #BC3941",
"R  c #C43741",
"E  c #CE3540",
"W  c #C23B43",
"Q  c #CD3A43",
"!  c #D53641",
"~  c #D33B45",
"^  c #E73848",
"/  c #8A5647",
"(  c #935248",
")  c #B7454A",
"_  c #A65153",
"`  c #B85658",
"'  c #906855",
"]  c #83735B",
"[  c #B65E61",
"{  c #B67468",
"}  c #CD4147",
"|  c #C4464C",
" . c #CB444C",
".. c #D3424D",
"X. c #DA434B",
"o. c #C54F55",
"O. c #CD4E53",
"+. c #D34D53",
"@. c #DC4B52",
"#. c #D25256",
"$. c #DB5256",
"%. c #D75459",
"&. c #DB5459",
"*. c #E1484D",
"=. c #E44D54",
"-. c #E94F55",
";. c #E25357",
":. c #E95257",
">. c #E4555A",
",. c #EC535A",
"<. c #E4585C",
"1. c #EB595D",
"2. c #F1575D",
"3. c #C6635F",
"4. c #EA605A",
"5. c #EC5C61",
"6. c #F45E62",
"7. c #D4696E",
"8. c #D9696B",
"9. c #C17D75",
"0. c #D67977",
"q. c #E86569",
"w. c #F46165",
"e. c #F96569",
"r. c #F86A6C",
"t. c #F36F71",
"y. c #E87678",
"u. c #F47073",
"i. c #F67679",
"p. c #038335",
"a. c #098237",
"s. c #038837",
"d. c #038639",
"f. c #038C3B",
"g. c #0A883A",
"h. c #03933D",
"j. c #08913E",
"k. c #03993F",
"l. c #0E8E41",
"z. c #039640",
"x. c #039C43",
"c. c #0D9C47",
"v. c #1A9646",
"b. c #2E8545",
"n. c #23934C",
"m. c #348C50",
"M. c #3F9351",
"N. c #03A346",
"B. c #04A947",
"V. c #03A649",
"C. c #04A549",
"Z. c #08A648",
"A. c #04AC4B",
"S. c #08AC4D",
"D. c #1BA44F",
"F. c #03B14E",
"G. c #04B14E",
"H. c #04B24E",
"J. c #04B84F",
"K. c #03AD51",
"L. c #19AC54",
"P. c #05B651",
"I. c #04B552",
"U. c #08B556",
"Y. c #05BA52",
"T. c #03BB54",
"R. c #03B956",
"E. c #0CBD56",
"W. c #04BD58",
"Q. c #24AC57",
"!. c #37BC6A",
"~. c #549B5C",
"^. c #788E68",
"/. c #59A265",
"(. c #70A46F",
"). c #78A172",
"_. c #03C256",
"`. c #03C559",
"'. c #04C659",
"]. c #03CB5B",
"[. c #08C85C",
"{. c #02D05F",
"}. c #41C26E",
"|. c #919075",
" X c #A48674",
".X c #BF877C",
"XX c #A29D7D",
"oX c #99A27F",
"OX c #E47B81",
"+X c #DC8282",
"@X c #E88789",
"#X c #F78787",
"$X c #F69896",
"%X c #EFA5A5",
"&X c #F6A6A1",
"*X c #F9A5A2",
"=X c #F7ABA6",
"-X c #FAAEA8",
";X c #F9B1AD",
":X c #F9B8B2",
/* pixels */
"`.h.- x.p._.f.d._.s.h.s.f.p.f.R.& h.R.% x.- x.Y.$ A.* C.P.$ V.$ A.A.% F.A.% V.$ J.x.% J.h.% x.- _.f.",
"U.G.% F.V.K.B.V.K.C.f.x.f.x.F.R.f.G.R.f.x.f.R.R.p.C.f.R._.- G.- R.`.p.R.'.% A.p.R.Y.d.P.Y.$ A.x.K.G.",
"P.f.# h.p.Y.p.p.P.- % s.- - f.G.& h.G.% p.- x.F.% f.- N.A.# h.# V.C.$ A.V.# f.$ A.z.$ F.z.$ h.p.P.f.",
"a.% h.% % - $ h.% $ h.$ & & - & & h.$ - % p.h.$ p.f.@ p.$ p.s.@ - % d.p.# s.& @ - % - % h.% $ - * k.",
"Y.x.R.B.f.C.x._.x.N.`.z.x.z.x.z.P.R.s.G.f.R.].p.Y.].- Y.- R.'.% G.d.`.Y.- _.J.$ Y.p.R.z.W.P.- A.x.`.",
"S.z.'.x.- x.z.].k.x.].f.p.f.f.f.A.'.- x.f.P.`.- P.].% C.* R._.$ Z.- `.P.- '.G.@ C.% G.f.`.B.% Z.f.].",
"$ $ - @ @ $ $ - # # - @ @ # # # # - @ # @ % & @ $ & @ $ # % & @ # @ & % @ $ # O $ # $ # - # @ # @ & ",
"Z.d.'.h.s.h.s.'.s.f.h.k.f.x._.& Z.p.C.'.% C._.$ A.R.% A.T.$ G.J.$ A.% P.F.$ C.% _.A.% _.N.& A.- B.- ",
"P.N.P.A.- N.N.R.x.s.z.f.z.P.R.f.x.z.P.`.d.P.].d.Y.`.p.Y._.p.Y.R.$ F.d.T.'.% A.d.R.Y.d.R.Y.$ A.- P.x.",
"f.- B.- % p.- V.& % & & - p.B.$ & & f.N.$ f.N.$ h.x.# h.x.@ z.z.@ s.% x.h.@ p.# x.f.$ N.f.@ p.$ s.% ",
"Z.- % s.- - & N.$ & & - N.% - x.# p.& s.x.$ f.& f.x.@ h.z.@ f.$ s.$ z.f.$ h.s.@ h.s.@ f.% s.$ x.- % ",
"U.A.- G.f.V.x.P.x.f.x.A.R.h.A.R.f.x.h.R.R.f.F.f.Y.`.s.R.!.5 oX|.).m.R.R.p.R.R.- R.Y.$ F.- Y.z.P.Y.p.",
"[.x.$ Z.- h.f.].s.- f.x.].p.x.].- f.d.A.`.& k.p.G.'.2 XX@X=X$X=X:X%XXXQ.* '.A.% '.B.@ Z.$ V.p.].x.% ",
"d.% @ $ $ % # % $ $ - # % & # % @ # & # * & # $ = ^.0.=X;X#Xr.e.w.u.&X0.: & # & & # $ # & $ @ - $ @ ",
"[.Z.- A.h._.x.h.x.z.`.h.x.'.s.k.f.V._.- C._.& /.9.$X:X$Xu.e.6.2.,.,.w.#X3.L.- `.P.- P.d._.C.p.`.V.s.",
"`.A.% G.N.`.C.s.x.V.`.x.V.`.h.h.z.P.`.p.G.!. X@X;X*Xi.e.6.2.,.-.-.:.1.i.^ (.f.R.T.$ J.z.`.G.f._.G.& ",
"z.- # p.% x.% $ & % k.$ & x.# % % - j., / +X@X;X#Xr.w.2.,.-.=.=.>.<.1.u.Y 0.@ z.- @ - $ z.& # k.% @ ",
"d.- A.p.p.s.- A.& p.p.s.A.& d.A.% f.' P z k R 4.i.6.,.-.=.=.=.1.1.<.>.X.F q.; B.h.# A.h.& k.& F.f.& ",
"P.x.K.A.s.C.V.R.N.f.x.P.P.h.F.R.l.|.OX@X=Xq.J f Q q.-.=.=.;.<.<.>.@.L D H q.n.K.R.f.P.Y.* R.x.K.Y.x.",
"z.s.'.f.& f.f.].s.- f.h.'.- x.}..Xy.-X*Xi.w.1.J w U q.=.>.<.<.$.~ H G F ! q.; _.C.- _.x.$ x.p.`.x.p.",
"s.% % s.$ # f.* # s.$ % - :  X8.$X-X#Xr.6.,.=.@.Z w } >.>.&.@.J a a H ! X.{ # p.$ p.- $ & $ f.- $ s.",
"W.A.h.R.V.h.`.x.h.R.x.g.^.7.@X-X$Xt.6.1.:.=.@.@.+.v f =.@.~ g a s K E ~ @./.& R.d.R.T.* P.d.W.A.- R.",
"[.A.h.'.C.h.`.N.x.'.c.' 8.*X5.5.5.1.:.=.=.@.@.$.%.| q P L s a H I ~ ~ ..{ E.$ G.p._._.$ C.p.`.G.p.'.",
"g.& $ d.% $ s.$ # d.]  .&Xy.@.=.=.=.=.@.@.@.&.&.%.O.t i H s K E Q Q  .` ; p.@ $ # p.- @ & @ - & @ f.",
"Z.a.R.f.s._.f.f.f.b.T E 8.#.Q *.X.X.X.@.$.;.%.#. .z 9 q z E E Q Q O.' D.- Y.N.$ C.- B.- R.x.& x.p.`.",
"P.Z.A.A.N.A.B.p.N.5 H D i y u k R  .+.+.&.$.+.P d u p t A ..Q  .` ~.$ A.f.R.G.@ A.* R.x.P.Y.% B.x.P.",
"j.- P.p.- J.- & a.[ g e e e y y i T O.#.+.} z u u z S r A .. .( v.x.@ f.% B.h.@ s.@ h.& A.s.# s.- F.",
"a.% x.% & - % & ; ` g q 7 7 q 8 e l |  .P d u d J P S t A o., g.# z.s.@ k.p.# - @ - # x.- # x.& $ - ",
"Y.x.A.A.f.N.f.x.D.` m 0 . . 6 7 8 e l k u u z P P R T f C Q.- R.d.P._.s.R.R.- Y.- A.f.R.A.f.P.C.- A.",
"S.h.'.x.- z.- k.c.[ B h     . . 6 7 8 y u A I P R | C j 4 R.$ V.- _.Y.- _.G.$ B.% x.d.].N.d.`.x.& x.",
"$ $ - $ $ @ @ & $ 5 B n x X     . 6 7 f J P R R ) N o > - & # # $ - % @ - - @ $ $ % @ p.% @ - $ $ $ ",
"Z.f.Z.f.].f.f.].f.b._ N b c x h h h v C S R W ( Q.'.& P.'.% Y.& Y.R.$ G.- '.F.% _.A.& '.A.% F.d.].x.",
"G.- V.x.W.N.N.R.x.s.5 B m n b c c n m C S ) 5 g.P.`.p.Y.`.& A.- R.`.$ A.d.'.Y.- R.Y.p.R.Y.$ A.x.R.B.",
"- $ - & x.& % x.% $ * 3 B n n n n m V C ) + & % f.z.# f.h.@ - $ h.f.# - $ k.p.@ h.p.# k.p.@ - $ x.- ",
"A.d.& f.p.s.- A.* p.p.d.M.M v v v m V / D.$ h.% k.N.$ x.N.$ z.$ z.% x.h.# h.% h.% A.p.& s.% B.- - s.",
"U.G.- F.f.V.Z.R.N.f.x.P.R.f.b.1 < , : R.R.s.B.f.P._.p.Y.'.- Y.* G.f._.Y.% P.& Y.h.P.Y.- A.h.R.A.- B.",
"_.h.# h.& h.f.`.s.- f.z._.- k._.& a.p.Z.R.& f.- B.R.% A.R.$ x.# h.& Y.B.@ x.@ x.- R.x.$ h.- _.h.$ h.",
"$ $ @ # @ & # $ # # - # $ & @ $ @ $ & @ $ @ # @ & - @ % # $ % @ % % $ $ @ $ @ % $ # # @ & # # - # @ ",
"- A.p.A.h.R.x.k.x.x.`.h.x.'.s.x.f.B.`.- Z.s.J.p.P.].% P.% Y.'.& R._.% P.* R.- R.J.& Y.d.`.A.p._.B.s.",
"& V.% A.x._.N.p.N.N.'.k.N.`.f.f.z.P.].p.z.s.C.f.R.].* A.- R.'.- _.].% A.% G.d.R.Y.$ Y.z.`.G.f._.F.- ",
"@ $ @ % $ f.$ # % % f.$ $ f.# $ $ - f.@ $ # % $ p.d.@ & @ - - # p.p.@ % @ & $ f.- @ - $ f.$ @ h.& @ ",
"- P.p.- Y.p.p.s.f.Y.& s.p.f.J.% h.J.& x.- x.% x.G.$ x.A.# x.% Z.% Z.% A.x.& x.& x.- R.s.p.k.- Y.p.p.",
"x.R.C.x.R.N.p.N.F.P.k.f.x.Y.K.h.Y.R.f.C.d.V.- R.`.- Y._.% A.- J.% P.f.P.R.% A.% P.N.P.F.- A.N.P.A.N.",
"a.R.p.- Y.- % s.s.Y.& & p.h.Y.& h.Y.$ s.% f.% x.F.$ N.B.@ f.$ h.@ h.% F.h.@ f.@ h.- _.f.$ h.p._.p.p.",
"h.- $ & % h.$ % z.% % % % h.$ & % - f.# - f.@ - f.@ & % - s.@ - # p.s.# s.p.# - $ f.p.# & # f.- # f.",
"W.A.- G.N.R.V.N.R.x.h.N.N.R.h.k.h.A.R.s.A.`.p.A._.& C.f.R.R.& P.s.Y._.p.R.T.& R.d.R.R.% G.p.R.F.p.R.",
"].V.$ A.x.].x.x.{.k.p.x.x.].s.f.s.A.].- F.].- P.].% k.p.R.`.% Z.- `.`.- '._.$ J.- `.Y.# C.- ].A.p.].",
"a.$ @ % $ d.@ $ d.@ @ $ $ - # $ @ $ & # $ - # $ - @ $ $ $ - @ % # % - $ % & @ % @ & & @ # @ & % @ - ",
"E.h.- N.f._.h.f._.f.h.h.h.f.h.R.& x.p.C.p.A.R.% A.% A.Y.$ A.- J.B.$ Y.A.% A.& Y.C.& R.x.& A.- Y.x.p.",
"U.A.% P.V.P.B.B.P.C.f.x.f.z.F.R.f.h.f.Z.f.R.`.- B.- R.`.& A.f._.R.d.`.R.% F.f.P.T.f.F.Y.% P.k.P.Y.- "
};
