/* XPM */
static char *_6d6e0e69bd941c384e33d277d3ee134t2U3QEu0LwUgs5HS[] = {
/* columns rows colors chars-per-pixel */
"50 50 74 1 ",
"  c #015D1F",
". c #016524",
"X c #026926",
"o c #026D29",
"O c #02732D",
"+ c #02792F",
"@ c #027630",
"# c #027C32",
"$ c #038335",
"% c #088236",
"& c #038837",
"* c #038639",
"= c #038C3B",
"- c #03933E",
"; c #08913D",
": c #03993F",
"> c #039541",
", c #039C42",
"< c #03A346",
"1 c #04A947",
"2 c #03A649",
"3 c #05A448",
"4 c #04A549",
"5 c #08A648",
"6 c #03AA48",
"7 c #03AB4B",
"8 c #04A848",
"9 c #04AD4B",
"0 c #03AB4D",
"q c #03AF4C",
"w c #04AD4C",
"e c #08AB4D",
"r c #08AD4D",
"t c #03B04C",
"y c #03B04F",
"u c #04B04D",
"i c #03B74D",
"p c #03B44E",
"a c #03B84F",
"s c #04B84F",
"d c #03AC50",
"f c #03B752",
"g c #04B450",
"h c #04B552",
"j c #07B652",
"k c #07B254",
"l c #03B754",
"z c #08B556",
"x c #03B953",
"c c #04BA52",
"v c #04BB53",
"b c #04BC53",
"n c #03BB57",
"m c #02BC55",
"M c #04BE54",
"N c #08BC54",
"B c #03BC58",
"V c #04BD59",
"C c #03C153",
"Z c #03C157",
"A c #03C357",
"S c #04C457",
"D c #03C35B",
"F c #07C15A",
"G c #03C65B",
"H c #04C759",
"J c #04C75A",
"K c #03C75C",
"L c #08C258",
"P c #03CB5B",
"I c #04CB5B",
"U c #03CA5C",
"Y c #08CD5F",
"T c #02D05F",
/* pixels */
"F-#,$A=*C&-&=$=MO-MO,#,co6@3jo2o9qOy7O2op,Os-O,#A=",
"kuOy2d62d<=,=,yl=un=,=ml$<=nA#u#cG$lHOw$nx*jxoq,du",
"j=X-$c$$f#O&##=pO-pO$#,yO=#<9X-X2<o62X=oq>oy,o-$f=",
"%O-OO#o-Oo-oOO#OO-o#O$-o$=.$o$&.#O*$X&+.#O#O-Oo#@-",
"c,n6=<,A,<D>,>,>jm&u=nI$xU#c#mSOp$Gc#Apox$M>Vj#0,D",
"r>H,#,>U-,I=$===wH#,=fG#fIO<@bAo3#Gf#Hu.<Ou=G6O3=U",
"oo#..oo#XX#..XXXX#.X.OO.oO.oXOO.X.OO.oX oXoX#X.X.O",
"5*H-&-&S&=--=,A+3$3SO2Co6bO9Moupo9Ojyo3OA6OC<O6#8#",
"j<jq#<<n,&>=>jl=,>jG*fI*cG$xA$cAoy$mHO9*mx*mxoq#j,",
"=#6#O$#2OO+O#$6o++=<o=<o-,X-,.>>.&O,-.$X,=o<=.$o&O",
"3#O&##O<oO+#<O#,X$O&,o=O=,.->.=o&o>=o-&.-&.=O&o,#O",
"z9#u=2<f,=,qn-qn=,-mB=y=xD&cF+xOj=mm$MM#Mxoy#x>jx$",
"Y,o3#-=I&#=,U$,I#=*6GO-$uHOjSX3o,@Mu@SwOS6.3o6$I,O",
"*O.ooOXOoo#XOOXOXXOX@OXoo@OoO.o.OOoOXOXOOXoXOo.#o.",
"F3#6-A,-,>G-,H&:=2A#<AO2$fm+p#pOpmOu@p#Fj#j*A3$D2&",
"FwOu<D<&,2G,2G-->jG$uG#,*FG#<#y#AUO6O9=mmop>Dp=ApO",
">#X$O,OoOO-oO,oOO#-.+-.Oo#-X+o#.=*.#.#.>#.#o>OX-O.",
"*#6$$&#w+$$&9O*qO=O-#-6X-o,3X,<X,O3-o-o6-X6-O-Oy=O",
"j,d6&<2l<=,ff=ul=,=<-fD#6#jA#nGOy=DmOj=dm=jx@c,dx,",
">&S=O==K&#=-S#,S#&$-#6Ao-O6poqf.>#M6X,#A<#A,o,$G,$",
"&OO&oX=@X&oO#o=OOoO=XO=.OX#OO*oOX#$.##.$o$#oOo=#o&",
"V9-m2-F,-m,&<6n-,,2F=qA=6#6=Mm@p$cm#xMOb*cM@j*Vq#M",
"H6-H<-G<,S,+,6D==-qU=yU&,$,$bSO3$mA#bCou$AAo3$Gu$S",
"*Oo*Oo&oX*o.OO=oXo@*XO&XOooo#$XOo$#X#$.oX$#.O.#O.=",
"3%M-&A======M#-A#-MO,#6#6cO6Owyo6uo6#c<o2#6#m,+,$G",
"j30u<06$,&>yj>yj=nl&-&<=fm#q#nD#nGO6=np.q@c,jxO6,j",
";#j$#p#O#O#$yO&6O=qo#O&O,<.=o,<o<,.=O6-.&X-Ow&X&#y",
"%O<OO#OOO,X+O#O$-.%X#=.$-.$X==X&X>&.-$X#X#X,#X,Oo#",
"c,q6=<=,qf---<>jD&6#cA#cDOu*Fm#m*fA&lm#x#6=nw=f3#6",
"e-S,#>#-<G&&===qU#,#pA@fDO,$Hmo2#Ax#Apo8O,*U<*G,O,",
"oo#oo..Oo#.XO..O#oXX#OXO#oXo#OXXo#O.##.ooO.$O.#ooo",
"3=3=P-=I=--,I$,=6H$6A+j$pHOjSOcOcbou#HyOAqOH6Oy*I,",
"u#2,V<<m,&,jV==-cn=xn&<=fG$xDO9#nGo6*Dx#mx$mxow,n6",
"#o#O,OO,OoO#,oOO$:o$,o+o=>X=-.#o-=X#o-$.-$X-$.#O,#",
"r*+=$&#6#$$&yO$6o=O=wo-O>3o,<o>o>O,-X-O-O6&+&O1##&",
"zu#u=23n<=,fn-yn=-=Ml&6=jA$cD#c@u=AxOjOx-jc#q-n6#6",
"L-X-O-=G&#=>A#-AO&$3mO=#6MOqmo,X-Oc6.,.,#m,o-#A-o-",
"oo.X.OXoXX#XoO.oXoO.o.X.O#.OXoO.OOoo.o.OoXX.+XX#X.",
"#6$9-m,-,,U-,S&,=6G#3&p$fUOjOcHOcAOj#M#MpOc*F9$A6&",
"O2Ow,A<$<<H-<G==>jU$>&<=MU@6#MH#AUO6Ou*mcoc>Du=Ay#",
".o.Oo=oXOO=oo=Xoo#=.oXOo$*.O.##X$$.O.Oo=#.#o=o.-O.",
"#j$#c$$&=x+&$=aO-pO,#,O,uo,6X,O3O3Ou,O,O,#c=$-#x$$",
",l<,l<$<yf-=,cj-cl=<*2$mD#xAO7#pOf=fcO9Of<jy#0<j6<",
"%M$#c#O&&xOO$-xO-co&O=O,yo<6.=o-.-Oy-.=X-#A=o-$A$$",
"-#oOO-oO>OOOO-oOO#=X#=X#=.+O#&.#X$&X&$X#o=$X+X=#X=",
"V6#u<l2<l,-<<m---wA&wD$yAO3=MmOj&xA$nmOA*cbOu$ny$n",
"I2o0,P,,T-$,,P&=&9P#yI#jIO-$bGO3#GG#DAop#GcX<#P6$P",
"%o.Oo*.o*..oo#Xo.oOXo#Xo#.ooo#.OXO#oOO.O.OO.X.+O.#",
"N-#<=A-=A=---=-b+,$3$6mO6O6co7#p1oc6OwOc<Ob,O6#x,$",
"z9Oj2j66f<=,=>yn=-=3=nF#6#MGO7=Am*DmOy=jM=yxOj-jx#"
};
