/* XPM */
static char *e855237011bd4602b440ef0777e4d35bbDIqaFR58dZsCmcG[] = {
/* columns rows colors chars-per-pixel */
"50 50 84 1 ",
"  c #073D76",
". c #083D77",
"X c #073F79",
"o c #083F79",
"O c #07407B",
"+ c #0A437D",
"@ c #0C4681",
"# c #0E4984",
"$ c #0F4D89",
"% c #114B86",
"& c #124E89",
"* c #15528D",
"= c #18548E",
"- c #175491",
"; c #195692",
": c #1B5995",
"> c #1E5D9A",
", c #205F9B",
"< c #1F609D",
"1 c #21629E",
"2 c #2364A3",
"3 c #2668A6",
"4 c #2869A7",
"5 c #2566A8",
"6 c #2769A9",
"7 c #2A6CAC",
"8 c #2C6FB1",
"9 c #2E71B3",
"0 c #2F73B8",
"q c #3075B6",
"w c #3378B7",
"e c #3176B9",
"r c #347ABC",
"t c #367DC1",
"y c #387EC3",
"u c #387FC4",
"i c #3980C3",
"p c #3A82C5",
"a c #3A82C6",
"s c #3B83C6",
"d c #3C84C7",
"f c #3F87C6",
"g c #3B83C8",
"h c #3D85C9",
"j c #3C84CA",
"k c #3E86CC",
"l c #3F88CD",
"z c #3F87D0",
"x c #3F88D0",
"c c #4087CB",
"v c #428BCD",
"b c #4189CE",
"n c #428BCF",
"m c #418AD0",
"M c #438CD2",
"N c #448ED2",
"B c #428CD4",
"V c #458FD7",
"C c #428DD8",
"Z c #4690D4",
"A c #4791D7",
"S c #4892D5",
"D c #4893D6",
"F c #4792DA",
"G c #4793DD",
"H c #4993D8",
"J c #4995DB",
"K c #4993DD",
"L c #4995DD",
"P c #4B96DC",
"I c #4C98DE",
"U c #4D98DF",
"Y c #509CDF",
"T c #4793E0",
"R c #4A96E0",
"E c #4C98E0",
"W c #4C98E1",
"Q c #4D9AE1",
"! c #4F9CE3",
"~ c #4D99E5",
"^ c #4E9BE5",
"/ c #519EE5",
"( c #509DE8",
") c #53A1E7",
/* pixels */
":u;AL&h1HV>SM#h;Arda:aibwdb6q3kL:u1SL=N!&h:NV>bM=a",
"#7&gm+7=Ft%Gr+9#r2/3&86^:7^-2:rQ%6=hl%bh+0*Kr&Le#8",
"o*:@>:O*#:*#=+>*@1*@&#&*2#-%&2#;>O*#::@;+:*#>&%*+&",
";bQ;ML&A>mF%k>Fh>Va:r2wrN799hS1bA:k>BH*A:NL:MC*g=g",
";m(:VQ#g;JQ#y>Qh>Ri*e;erI72qMI1mI:t>VQ&k>JL:HB#t%r",
"O=>O;:+&#>*+&+>*O>%+%#%@1#%#*2O*>@*@=:+&#:&+:;o%+&",
"*iL&k&a*Fd*Jr%Ge-w>r2T2779Q:wL*a;iL&g*h&Fg&d>Qe;R9",
"1NQ-g%r1JA1HV:Vm%t*irdr>rhb7mb2r,bI:h=h>JA#g6Ab7Na",
"@3e+>+:%q3#q>+e>o:+:&t-#;:r#>r@:#2r+:+:@06X:%e>#r:",
"q@5%3@76#3#3+0>%1&r*%t*--;t@1*:e+20+2+2@82O9>#2&>*",
"A>h>b:AQ%h=m2Nm&bebardr3rhN6r3bI1bQ;k=b:JA:SV&k;h>",
"I*9*e&bl@8#q;Qw#r2^5>Q3-70Q;3:rQ*tL%9%9*Fa*It#0#e&",
"=*+&&X&%&%.#+:%o-%%#+>@+-#&+@-@*+&;X%*+&;##%=#+#+-",
"mF&mL%k;Lb%m>Ia>Lt:a7J8qL6q7aL>k>kQ;mL;AF*K>SA=h>I",
"LQ*KQ%t>^V#l3/b3/a&iqLetY927b/1r1V(:J/:LQ%M1IL%h2!",
"*>@::O%#1-+*+2*#2%O##2#%3@@%*3#&+-1+:2O>>+&+1*+*+3",
"9:rk%r*db&ha&a=me*0;V7:V2236<7A*7:t-ib%a;ht%r&M9-A",
"77LN:y1bJ1bJ%M6dF*h7bNwda:037mb272y1bF*k1bQ%h,bm4b",
"-*7y+:#qe#r0O6%a3+2*h<-m:#:*->g%-&2%8t+5%r7O2#a3%h",
"O>#33+22@:@7:+:&2%q*-;*w#*0@:@:#>6+>@32O52#<@0:#:%",
":h:AL-NQ&k1Ax#b>Mwda2aiAqgN7r1t1AL*h>LA;HV%m4Nb*kq",
"&9=bF&VB#q:LrOe&y4/7*q9/2q^>6:6:bF#0;AN*Jl+r>Qr@r2",
"O@$-%+%;@+%*++@##*=@&+@*+@=+#&+@#*+&#%*+;*X*@*%X*+",
"m>JH&G=GV;Lm*V>a3^96^697e2g2m/*F*m=Lm%m;Qa:^r:t6^8",
"91LF%h:AF,JM#k*t7Lr0Iq162394NI;h&y>IL#y1Ib2Id%teJe",
"#@::o&+1:+1=X&O%@2%#3#@#+###;2O&O&#1:X&+1*#2&O%@2%",
"#qh#0%rt#q*h7#h6%m3;7>V::22m;3M&6;eh%0&ri%dr%r&9=b",
",MI*g;V^%h2AV:Nm2bb-irNq>qbb7bA172KA:t>bH1AJ&m*k3b",
"@9hO2#reO5%h6#h3&b2@2;m;&<1N*2N&:;9g@,%ry@iqO7+6*M",
"o>3O:+:#1:+:@:%7&%*@6#*%&3+-7+:#:2+>>O:@3:+:+3&+6*",
":bQ=m%k1JN%m*F7bh>y0Ne69aS>yJ>t,NJ*NI&b;JA%b3Vk6At",
";b)&r#e>Qb@r#h3Qr-q7/6>3r/:t^;7>VQ*SI$w=Im@t1/a2(e",
"O**@&+&&**+#O*#=#@-#;*@@%;&@=O#*&:&&;+#+:;O*#=&+1#",
"&a*bF&MS*c=l:Lt;a7L96I799eI>t,rQ=hL*b=h*Jl*Fh=h,Q0",
"=w;HQ;A!&a&h3Am%brbyrbw>rhA691kQ,bQ=a=i>LA:FM%a9Su",
"O*@16+31o;+;#8:+:&w**q*#;-q#*$:7@>7+:@-@62+6:+:%9-",
"8a@9*e&0%g6&7=7;B:221V*1N&9:9h@r#et@ar@q&0&b2*6*A>",
"AF*t;l&m2bV%y*aydr>rha9mb3e7NA:l>MQ>bI&z%h4Ng&arbr",
"qg@2#8+7*b7@6@5>V>%23A*5M&>:eb@8%ta%atO7+3*m3@5:A<",
"$#&:X%O--+:&X&O:*+&+:#+>%@@#@#: #@*:O&X&+-%+&O:%+>",
"r3AS-b:VJ;AA%F1AA;b3Sh7Sr3983yJ:r2FA*k=F:VL*m:Jb>A",
"33JQ-r:JL;QJ#h,Qm%a3)i7/q:726y/:62AQ&w*g;LH#a:/h1/",
"@&&;+&#*:@**O&+;*+@@:=@:#+&+@*;++#&:@+++%;%@%+;%#;",
"yV%a;Ak*Aa&h:Kw:L9:w2G3690L:0H;t;y;hm#i*Va%Vy&a>L8",
"HL=i2QF>QS%h6Vm6Ag&atbr>rhS7lN2r:r>JR#a:LJ>JF%h9Ja",
"20+:%73+92+>@r>#r:+:*y*%::r%>r+;$:#36O:+82+9>+>%r;",
"6r+6&r9+8%t3%g2&6:>*a-:u*2;1h#3*7r@7%q9+w7@7*d2%h:",
"AA*a1VV%l2dF3dk&l>tebarh074bS1w1SS*g1HH:AA%l7bm7bg",
"tm@7*Ma+9*Be*F9o8&6>L>2G;>>9F&2;iM#7&ka%Mr+9:L9-K5",
">@*;O;#;&O*+:&+:#@##&#>@++@>#&:+*#*;O-#:;@:&+=@#%>"
};
